<mxfile host="Electron" modified="2025-01-07T02:11:38.927Z" agent="Mozilla/5.0 (Windows NT 10.0; Win64; x64) AppleWebKit/537.36 (KHTML, like Gecko) draw.io/24.2.5 Chrome/120.0.6099.109 Electron/28.1.0 Safari/537.36" etag="dWbrmGD6G7VccDS2U6Xx" version="24.2.5" type="device">
  <diagram name="第 1 页" id="BPC7siN4uiEX5nLekAeH">
    <mxGraphModel dx="2074" dy="1196" grid="1" gridSize="10" guides="1" tooltips="1" connect="1" arrows="1" fold="1" page="1" pageScale="1" pageWidth="827" pageHeight="1169" math="0" shadow="0">
      <root>
        <mxCell id="0" />
        <mxCell id="1" parent="0" />
        <mxCell id="x13RwDf_00Q8kAw4IzcE-7" style="edgeStyle=orthogonalEdgeStyle;rounded=0;orthogonalLoop=1;jettySize=auto;html=1;entryX=0.5;entryY=0;entryDx=0;entryDy=0;" edge="1" parent="1" source="x13RwDf_00Q8kAw4IzcE-1" target="x13RwDf_00Q8kAw4IzcE-4">
          <mxGeometry relative="1" as="geometry" />
        </mxCell>
        <mxCell id="x13RwDf_00Q8kAw4IzcE-8" style="edgeStyle=orthogonalEdgeStyle;rounded=0;orthogonalLoop=1;jettySize=auto;html=1;" edge="1" parent="1" source="x13RwDf_00Q8kAw4IzcE-1" target="x13RwDf_00Q8kAw4IzcE-5">
          <mxGeometry relative="1" as="geometry" />
        </mxCell>
        <mxCell id="x13RwDf_00Q8kAw4IzcE-1" value="NestedLoopJoinExec" style="rounded=1;whiteSpace=wrap;html=1;fillColor=#d5e8d4;strokeColor=#82b366;" vertex="1" parent="1">
          <mxGeometry x="190" y="300" width="130" height="60" as="geometry" />
        </mxCell>
        <mxCell id="x13RwDf_00Q8kAw4IzcE-3" value="" style="edgeStyle=orthogonalEdgeStyle;rounded=0;orthogonalLoop=1;jettySize=auto;html=1;" edge="1" parent="1" source="x13RwDf_00Q8kAw4IzcE-2" target="x13RwDf_00Q8kAw4IzcE-1">
          <mxGeometry relative="1" as="geometry" />
        </mxCell>
        <mxCell id="x13RwDf_00Q8kAw4IzcE-2" value="&lt;b&gt;&lt;font style=&quot;font-size: 14px;&quot;&gt;ProjectionExec&lt;/font&gt;&lt;/b&gt;" style="rounded=1;whiteSpace=wrap;html=1;fillColor=#f5f5f5;strokeColor=#666666;fontColor=#333333;" vertex="1" parent="1">
          <mxGeometry x="190" y="200" width="130" height="60" as="geometry" />
        </mxCell>
        <mxCell id="x13RwDf_00Q8kAw4IzcE-4" value="Input1Exec" style="rounded=1;whiteSpace=wrap;html=1;fillColor=#fff2cc;strokeColor=#d6b656;" vertex="1" parent="1">
          <mxGeometry x="110" y="410" width="120" height="60" as="geometry" />
        </mxCell>
        <mxCell id="x13RwDf_00Q8kAw4IzcE-5" value="Input2Exec" style="rounded=1;whiteSpace=wrap;html=1;fillColor=#e1d5e7;strokeColor=#9673a6;" vertex="1" parent="1">
          <mxGeometry x="290" y="410" width="120" height="60" as="geometry" />
        </mxCell>
        <mxCell id="x13RwDf_00Q8kAw4IzcE-9" style="edgeStyle=orthogonalEdgeStyle;rounded=0;orthogonalLoop=1;jettySize=auto;html=1;entryX=0.5;entryY=0;entryDx=0;entryDy=0;" edge="1" parent="1" source="x13RwDf_00Q8kAw4IzcE-11" target="x13RwDf_00Q8kAw4IzcE-14">
          <mxGeometry relative="1" as="geometry" />
        </mxCell>
        <mxCell id="x13RwDf_00Q8kAw4IzcE-10" style="edgeStyle=orthogonalEdgeStyle;rounded=0;orthogonalLoop=1;jettySize=auto;html=1;" edge="1" parent="1" source="x13RwDf_00Q8kAw4IzcE-11" target="x13RwDf_00Q8kAw4IzcE-15">
          <mxGeometry relative="1" as="geometry" />
        </mxCell>
        <mxCell id="x13RwDf_00Q8kAw4IzcE-11" value="NestedLoopJoinExec" style="rounded=1;whiteSpace=wrap;html=1;fillColor=#d5e8d4;strokeColor=#82b366;" vertex="1" parent="1">
          <mxGeometry x="588" y="200" width="130" height="60" as="geometry" />
        </mxCell>
        <mxCell id="x13RwDf_00Q8kAw4IzcE-18" value="" style="edgeStyle=orthogonalEdgeStyle;rounded=0;orthogonalLoop=1;jettySize=auto;html=1;" edge="1" parent="1" source="x13RwDf_00Q8kAw4IzcE-14" target="x13RwDf_00Q8kAw4IzcE-16">
          <mxGeometry relative="1" as="geometry" />
        </mxCell>
        <mxCell id="x13RwDf_00Q8kAw4IzcE-14" value="&lt;b&gt;&lt;font style=&quot;font-size: 14px;&quot;&gt;Projection1Exec&lt;/font&gt;&lt;/b&gt;" style="rounded=1;whiteSpace=wrap;html=1;fillColor=#f5f5f5;strokeColor=#666666;fontColor=#333333;" vertex="1" parent="1">
          <mxGeometry x="508" y="310" width="120" height="60" as="geometry" />
        </mxCell>
        <mxCell id="x13RwDf_00Q8kAw4IzcE-19" value="" style="edgeStyle=orthogonalEdgeStyle;rounded=0;orthogonalLoop=1;jettySize=auto;html=1;" edge="1" parent="1" source="x13RwDf_00Q8kAw4IzcE-15" target="x13RwDf_00Q8kAw4IzcE-17">
          <mxGeometry relative="1" as="geometry" />
        </mxCell>
        <mxCell id="x13RwDf_00Q8kAw4IzcE-15" value="&lt;b&gt;&lt;font style=&quot;font-size: 14px;&quot;&gt;Projection2Exec&lt;/font&gt;&lt;/b&gt;" style="rounded=1;whiteSpace=wrap;html=1;fillColor=#f5f5f5;strokeColor=#666666;fontColor=#333333;" vertex="1" parent="1">
          <mxGeometry x="688" y="310" width="120" height="60" as="geometry" />
        </mxCell>
        <mxCell id="x13RwDf_00Q8kAw4IzcE-16" value="Input1Exec" style="rounded=1;whiteSpace=wrap;html=1;fillColor=#fff2cc;strokeColor=#d6b656;" vertex="1" parent="1">
          <mxGeometry x="508" y="410" width="120" height="60" as="geometry" />
        </mxCell>
        <mxCell id="x13RwDf_00Q8kAw4IzcE-17" value="Input2Exec" style="rounded=1;whiteSpace=wrap;html=1;fillColor=#e1d5e7;strokeColor=#9673a6;" vertex="1" parent="1">
          <mxGeometry x="688" y="410" width="120" height="60" as="geometry" />
        </mxCell>
        <mxCell id="x13RwDf_00Q8kAw4IzcE-20" value="" style="shape=flexArrow;endArrow=classic;html=1;rounded=0;" edge="1" parent="1">
          <mxGeometry width="50" height="50" relative="1" as="geometry">
            <mxPoint x="421" y="344" as="sourcePoint" />
            <mxPoint x="481" y="344" as="targetPoint" />
          </mxGeometry>
        </mxCell>
      </root>
    </mxGraphModel>
  </diagram>
</mxfile>
